<?xml version='1.0' encoding='iso-8859-1'?>
<!DOCTYPE svg PUBLIC '-//W3C//DTD SVG 1.1//EN' 'http://www.w3.org/Graphics/SVG/1.1/DTD/svg11.dtd'>
<svg version="1.1" xmlns="http://www.w3.org/2000/svg" viewBox="0 0 460 460" xmlns:xlink="http://www.w3.org/1999/xlink" enable-background="new 0 0 460 460">
  <g>
    <path d="m162.087,333.218c3.656,0 6.772-2.65 7.361-6.258l7.16-44.131c5.933-7.429 10.239-16.567 10.879-27.679 9.805-2.618 30.227-7.873 39.548-8.804 16.558-1.658 35.81,2.924 53.043,49.442 5.934,16.016 11.05,32.071 11.101,32.231 0.985,3.096 3.859,5.198 7.107,5.198h37.471c3.55,0 6.609-2.503 7.311-5.984 2.866-14.217 5.929-29.734 9.156-46.12 12.203,25.148 22.866,47.458 23.058,47.861 1.239,2.592 3.856,4.243 6.73,4.243h5.602l1.55,3.102c6.89,13.779 2.419,30.613-10.398,39.158-3.427,2.285-4.353,6.915-2.068,10.342 1.437,2.156 3.802,3.322 6.212,3.322 1.422,0 2.859-0.406 4.13-1.254 17.971-11.98 24.902-34.914 17.056-54.67h2.254c2.891,0 5.513-1.682 6.741-4.298 1.229-2.617 0.826-5.719-1.02-7.944-1.193-1.437-28.879-35.686-1.802-79.735 25.056-40.76 35.214-60.583 34.738-93.004-0.023-1.579-0.121-3.143-0.264-4.696 8.568-9.897 24.15-41.847 8.706-55.62-3.323-2.965-7.64-4.359-12.457-4.062-9.501,0.604-19.817,7.76-26.002,14.712-10.98-5.874-24.518-8.933-40.008-8.933-16.563,0-29.079,3.492-38.421,8.17-6.245-6.703-16.159-13.367-25.312-13.949-3.539-0.219-6.796,0.482-9.595,2.038-2.347-1.064-24.893-10.954-58.282-14.111-31.542-2.979-79.07-0.197-127.141,29.635-6.089,0.694-25.68,3.703-47.32,15.182-23.692,12.569-54.381,38.049-66.045,88.066-2.241,9.61-9.061,38.855 11.874,70.899 1.382,2.115 3.735,3.377 6.243,3.377 0.145,0 0.291-0.004 0.438-0.013 2.669-0.156 5.05-1.73 6.241-4.124 7.713-15.504 21.684-38.257 34.768-51.312 0.78,6.559 1.899,13.286 3.405,20.198 10.169,46.675 33.108,84.385 34.08,85.967 1.357,2.209 3.763,3.556 6.356,3.556h55.816zm279.723-236.455c1.757-0.118 2.545,0.372 3.034,0.808 4.929,4.395 0.956,18.547-4.323,28.852-2.724-6.524-6.636-12.476-11.627-17.546-0.997-1.013-2.049-1.973-3.126-2.908 4.446-4.508 11.178-8.897 16.042-9.206zm-131.383,0c4.493,0.285 10.58,4.052 14.989,8.179-1.899,1.532-3.569,3.073-5.023,4.567-4.102,4.217-7.45,9.045-9.978,14.234-4.583-9.943-7.535-22.148-3.022-26.174 0.488-0.433 1.266-0.923 3.034-0.806zm-289.519,159.07c-8.47-19.197-6.249-36.063-3.518-47.775 8.292-35.557 27.803-61.8 57.993-78.002 4.775-2.562 9.456-4.657 13.881-6.375-19.08,21.326-28.557,48.805-28.094,81.446-16.421,11.607-31.765,35.72-40.262,50.706zm121.25,62.471l-2.466-10.243c4.99-1.916 12.096-5.08 19.311-9.728l-3.257,19.971h-13.588zm187.49,0h-5.139l.361-73.417c0.02-4.119-3.303-7.474-7.421-7.495-0.013,0-0.025,0-0.038,0-4.102,0-7.437,3.315-7.457,7.421l-.361,73.491h-5.891c-2.026-6.153-5.65-16.928-9.638-27.696-16.073-43.386-37.846-62.163-68.513-59.103-13.711,1.37-46.156,10.376-47.531,10.76-3.393,0.944-5.662,4.134-5.442,7.649 2.049,32.78-43.284,45.98-43.732,46.106-3.866,1.08-6.184,5.025-5.245,8.928l3.214,13.354h-16.252c-5.808-10.312-22.372-41.779-30.229-78.114-12.425-57.458 1.813-99.584 42.316-125.209 0.017-0.011 0.035-0.021 0.052-0.033 35.976-22.744 75.909-32.286 118.691-28.365 25.674,2.354 44.729,9.125 51.486,11.812-3.06,13.973 5.707,32.98 12.455,42.377-0.318,2.576-0.45,5.177-0.378,7.781v-0.001c0.539,19.586 2.521,43.223 19.309,75.964 4.589,8.947 10.716,21.302 17.129,34.387l-11.746,59.403zm67.912-84.872c-17.108,27.831-15.433,52.695-11.015,68.652 1.759,6.353 4.077,11.821 6.325,16.22h-6.161c-7.702-16.076-35.339-73.625-49.169-100.593-15.365-29.962-17.155-50.796-17.672-69.567v-0.001c-0.285-10.322 3.804-20.612 11.217-28.233 9.772-10.045 24.95-15.354 43.895-15.354 40.158,0 54.799,22.679 55.111,43.902 0.4,27.2-6.971,43.397-32.531,84.974z"/>
    <path d="m355.756,198.063c-1.959,0-3.879,0.796-5.27,2.188-1.383,1.383-2.178,3.311-2.178,5.27 0,1.969 0.795,3.888 2.178,5.271 1.392,1.392 3.311,2.187 5.27,2.187 1.969,0 3.888-0.795 5.28-2.187 1.383-1.383 2.188-3.302 2.188-5.271 0-1.959-0.805-3.878-2.188-5.27-1.392-1.392-3.311-2.188-5.28-2.188z"/>
    <path d="m394.905,198.063c-1.959,0-3.888,0.796-5.27,2.188-1.393,1.383-2.188,3.311-2.188,5.27 0,1.969 0.795,3.888 2.188,5.271 1.392,1.392 3.311,2.187 5.27,2.187 1.968,0 3.888-0.795 5.27-2.187 1.393-1.383 2.188-3.302 2.188-5.271 0-1.959-0.795-3.887-2.188-5.27-1.381-1.392-3.301-2.188-5.27-2.188z"/>
  </g>
</svg>
