<?xml version='1.0' encoding='iso-8859-1'?>
<!DOCTYPE svg PUBLIC '-//W3C//DTD SVG 1.1//EN' 'http://www.w3.org/Graphics/SVG/1.1/DTD/svg11.dtd'>
<svg version="1.1" xmlns="http://www.w3.org/2000/svg" viewBox="0 0 460 460" xmlns:xlink="http://www.w3.org/1999/xlink" enable-background="new 0 0 460 460">
  <g>
    <path d="m301.732,252.351c-1.975,0-3.902,0.799-5.298,2.185-1.388,1.397-2.186,3.323-2.186,5.299 0,1.966 0.798,3.902 2.186,5.289 1.396,1.397 3.323,2.195 5.298,2.195 1.966,0 3.892-0.798 5.288-2.195 1.388-1.387 2.195-3.323 2.195-5.289 0-1.976-0.808-3.902-2.195-5.299-1.396-1.387-3.322-2.185-5.288-2.185z"/>
    <path d="m392.497,252.351c-1.966,0-3.891,0.799-5.288,2.185-1.387,1.397-2.195,3.323-2.195,5.299 0,1.966 0.809,3.892 2.195,5.289 1.397,1.397 3.323,2.195 5.288,2.195 1.976,0 3.902-0.798 5.299-2.195 1.396-1.387 2.195-3.323 2.195-5.289 0-1.976-0.799-3.902-2.195-5.299-1.397-1.387-3.322-2.185-5.299-2.185z"/>
  </g>
  <path d="m321.414,375.658c1.912,0 3.751-0.731 5.14-2.044 21.029-19.873 29.821-52.884 31.942-62.112 25.246-1.054 44.785-5.719 58.179-13.91 14.901-9.114 22.776-22.958 22.776-40.035 0-9.549-1.771-18.86-5.003-27.639 19.59-16.965 24.961-34.243 25.241-35.187 0.882-2.972-0.161-6.181-2.621-8.067-17.747-13.609-39.901-13.907-56.526-11.308-0.195-9.929-3.167-20.434-11.05-30.041-22.607-27.55-58.427-36.223-59.94-36.579-2.227-0.522-4.568,0-6.36,1.419-0.751,0.595-1.362,1.326-1.829,2.136-19.151-13.103-45.503-23.719-80.658-23.719-4.134,0-7.484,3.351-7.484,7.484v8.706c-21.023-10.413-67.221-29.149-105.906-15.78-3.016,1.043-5.039,3.883-5.039,7.074v24.687c-18.566,1.291-66.955,7.215-89.078,34.199-2.394,2.92-2.238,7.166 0.365,9.902l5.21,5.479c-4.994,5.726-12.835,15.831-20.174,29.971-10.799,20.812-22.567,54.796-17.302,98.508 0.453,3.76 3.644,6.589 7.43,6.589h13.964c8.398,40.209 40.342,67.33 41.771,68.525 1.347,1.125 3.045,1.741 4.799,1.741h70.603c4.134,0 7.484-3.351 7.484-7.484v-10.086c0-15.283 11.956-27.851 27.005-28.794h40.148c15.895,0 28.826,12.9 28.826,28.794v10.086c0,4.133 3.35,7.484 7.484,7.484h70.603zm4.937-218.261c2.203,0.446 4.487-0.118 6.226-1.54 1.74-1.421 2.748-3.549 2.748-5.795v-23.837c11.021,4.064 29.622,12.772 42.597,28.585 6.176,7.526 7.987,15.605 7.74,22.944-11.871-5.547-24.977-8.7-38.546-8.7-15.001,0-28.645,2.471-40.605,7.247-2.923-9.973-7.958-18.66-13.078-25.591l32.918,6.687zm-310.86,133.027c-2.404-29.383 3.003-57.166 16.107-82.677 10.567-20.574 22.468-31.878 22.575-31.979 1.462-1.362 2.318-3.252 2.38-5.25 0.061-1.997-0.681-3.936-2.058-5.384l-5.185-5.453c25.429-23.1 79.992-24.318 80.572-24.327 4.086-0.066 7.363-3.397 7.363-7.483v-26.252c43.53-11.134 99.03,21.716 99.605,22.06 2.312,1.391 5.193,1.429 7.542,0.102 2.349-1.328 3.801-3.817 3.801-6.515v-13.552c28.058,1.323 52.23,10.187 72.166,26.398v10.794l-46.893-9.525c-3.396-0.688-6.821,1.042-8.279,4.186-1.458,3.144-0.567,6.877 2.153,9.024 0.228,0.18 15.357,12.328 22.752,30.266-16.133-1.988-36.432-0.842-52.928,11.807-2.461,1.887-3.503,5.095-2.621,8.067 0.276,0.928 5.467,17.665 24.28,34.361-2.646,8.925-4.042,18.503-4.042,28.465 0,13.321 4.42,24.327 13.132,32.867h-252.422zm326.137-6.395v3.511h-5.192c-2.756,0-4.989,2.234-4.989,4.989 0,1.585 0.753,2.981 1.906,3.895-53.582-2.789-62.025-22.013-63.355-33.434 1.186-16.196 14.732-29.014 31.227-29.014 14.071,0 26.001,9.327 29.94,22.122-3.673,2.286-5.783,5.502-5.783,9.341-0.001,6.3 7.016,15.73 16.246,18.59zm-57.228-94.661c-2.544,2.121-4.962,4.388-7.219,6.828-4.922,5.32-9.071,11.372-12.428,17.967-7.368-7.387-11.576-14.305-13.774-18.74 10.448-5.934 22.661-6.928 33.421-6.055zm-152.02,171.323h-15.137c-0.98-6.54-0.838-12.381 3.146-17.241 2.91-3.55 8.654-7.471 19.808-10.29-4.921,7.081-7.817,18.273-7.817,27.531zm125.915,0c0-24.148-19.645-46.361-43.794-46.361h-40.738c-33.46,0.716-54.742,7.18-64.95,19.63-7.208,8.792-7.643,18.716-6.695,26.731h-29.994c-6.433-5.995-27.053-26.965-34.095-55.299h256.801c12.842,3.969 28.799,6.049 48.184,6.304-2.783,10.53-10.239,33.91-24.683,48.994h-16.792l6.802-20.407c1.307-3.921-0.813-8.159-4.733-9.467-3.922-1.308-8.16,0.812-9.467,4.734l-8.38,25.141h-27.466zm82.306-107.848c-5.295-16.704-20.943-28.846-39.376-28.846-11.164,0-21.301,4.46-28.741,11.683 3.386-13.039 10.096-25.244 20.978-34.52-0.209,1.242-0.469,2.493-0.797,3.753-1.04,4 1.359,8.086 5.361,9.126 0.63,0.164 1.265,0.243 1.888,0.243 3.326,0 6.362-2.234 7.238-5.603 1.558-5.994 2.099-11.779 1.878-17.301 8.555-3.85 18.698-6.359 30.603-7.101v16.467c0,4.116 3.377,7.199 7.493,7.199s7.475-3.083 7.475-7.199v-16.341c9.855,0.995 19.291,3.929 27.872,8.356-2.154,5.619-4.644,9.372-4.935,9.801-2.335,3.401-1.476,8.052 1.922,10.396 3.402,2.348 8.063,1.49 10.409-1.911 1.815-2.632 3.738-6.063 5.445-10.059 11.161,8.728 19.902,20.253 24.801,33.192-7.26-6.333-16.74-10.181-27.108-10.181-18.434,0-34.081,12.141-39.376,28.846-2.021-0.319-4.197-0.494-6.514-0.494-2.319,2.84217e-14-4.495,0.175-6.516,0.494zm20.283,43.576c1.149-0.914 1.9-2.308 1.9-3.89 0-2.755-2.233-4.989-4.989-4.989h-5.191v-3.504c3.532-1.084 6.931-3.187 9.905-6.188 1.487-1.502 6.341-6.834 6.341-12.409 0-3.839-2.11-7.054-5.783-9.341 3.939-12.795 15.87-22.122 29.94-22.122 16.254,0 29.651,12.446 31.173,28.308-2.743,20.599-23.986,32.051-63.296,34.135zm66.874-80.59c-5.815-9.887-13.553-18.736-22.657-26.004 11.766-1.573 26.102-1.261 38.144,5.591-2.37,4.761-7.052,12.405-15.487,20.413z"/>
</svg>
