<?xml version='1.0' encoding='iso-8859-1'?>
<!DOCTYPE svg PUBLIC '-//W3C//DTD SVG 1.1//EN' 'http://www.w3.org/Graphics/SVG/1.1/DTD/svg11.dtd'>
<svg version="1.1" xmlns="http://www.w3.org/2000/svg" viewBox="0 0 459.679 459.679" xmlns:xlink="http://www.w3.org/1999/xlink" enable-background="new 0 0 459.679 459.679">
  <g>
    <path d="m137.059,370.329c5.701-5.885 10.63-13.867 13.105-24.686 9.864-2.82 33.71-9.409 44.964-10.534 14.062-1.409 34.404,2.242 48.129,13.56 9.251,7.628 14.527,17.836 15.681,30.339 1.985,21.495 2.191,35.578 2.193,35.718 0.054,4.139 3.425,7.466 7.564,7.466h56.469c2.334,0 4.536-1.077 5.969-2.918 30.141-38.713 70.568-134.383 80.576-171.259 10.124-8.152 17.991-18.152 23.82-27.35 15.121-23.863 22.008-50.762 22.008-65.655 0-6.014-0.574-11.713-1.691-17.087 13.429-35.441-12.641-94.18-13.773-96.63-1.095-2.374-3.497-3.876-6.11-3.806-2.612,0.063-4.939,1.672-5.92,4.094l-18.926,46.753c-17.376-6.471-35.402-7.546-45.405-7.546-9.913,0-27.704,1.055-44.934,7.372l-18.856-46.579c-0.981-2.423-3.308-4.032-5.92-4.094-2.6-0.069-5.014,1.432-6.11,3.806-0.917,1.985-18.439,40.42-17.914,73.787-14.525-2.839-34.772-6-58.115-7.411-43.007-2.598-104.794,0.63-154.86,30.772-53.089,31.962-70.823,90.997-51.289,170.724 14.376,58.673 43.448,107.325 44.678,109.367 1.368,2.272 3.827,3.661 6.48,3.661h64.125c3.75,0 6.934-2.747 7.483-6.456l6.579-45.408zm299.022-308.721c5.04,13.994 11.386,35.542 10.845,54.113-5.724-8.913-13.72-16.28-23.876-21.92l13.031-32.193zm-31.376,40.459c-4.045,9.3-10.602,26.148-15.533,47.422-5.374,23.182-8.439,46.333-9.273,53.079-4.235-1.881-9.063-2.952-14.188-2.952-5.124,0-9.953,1.071-14.187,2.952-0.835-6.746-3.898-29.897-9.273-53.078-4.932-21.274-11.49-38.122-15.534-47.423 14.232-5.129 29.309-6.146 38.994-6.146s24.761,1.017 38.994,6.146zm-85.558,3.191c3.849,8.806 10.44,25.513 15.283,46.401 3.976,17.152 6.662,34.288 8.092,44.506-0.114,0.002-0.225-0.014-0.34-0.004-0.798,0.056-19.527,1.006-25.31-28.033-0.492-2.47-2.75-4.188-5.242-4.05-2.514,0.148-4.533,2.128-4.731,4.638-0.192,2.432-4.2,58.835 32.831,69.027 3.727,5.189 9.627,9.172 16.646,11.073-43.831-7.677-67.36-68.115-67.36-93.806 0-26.899 13.646-41.692 30.131-49.752zm16.303,119.575c0,0.037 0.003,0.073 0.003,0.111-9.818-6.166-14.536-18.199-16.757-29.487 10.801,11.754 24.145,10.77 24.337,10.755 0.279-0.025 0.544-0.087 0.807-0.155 0.08,0.378 0.188,0.741 0.348,1.072-5.398,4.556-8.738,10.81-8.738,17.704zm10.087,0c0-8.343 9.05-15.13 20.174-15.13 11.124,0 20.174,6.787 20.174,15.13s-9.05,15.13-20.174,15.13c-11.125,0-20.174-6.787-20.174-15.13zm41.696-17.705c0.16-0.331 0.269-0.694 0.348-1.072 0.263,0.068 0.528,0.13 0.807,0.155 0.192,0.017 13.564,1.001 24.372-10.793-2.211,11.304-6.931,23.361-16.793,29.534 0-0.04 0.004-0.079 0.004-0.119-5.68434e-14-6.894-3.34-13.148-8.738-17.705zm-91.348-145.508l12.928,31.938c-10.053,5.5-18.021,12.672-23.789,21.347-0.327-18.368 5.9-39.491 10.861-53.285zm-194.988,345.442l-.051-19.948c4.818-0.579 11.352-1.857 18.117-4.654 0.407-0.168 0.819-0.345 1.232-0.527l-3.725,25.129h-15.573zm220.503-0h-16.068l13.417-49.012c1.103-4.03-1.269-8.191-5.299-9.294-4.033-1.105-8.191,1.269-9.294,5.299l-14.511,53.007h-13.62c-0.267-6.384-0.833-16.567-2.023-29.445-1.517-16.431-8.82-30.478-21.12-40.621-18.253-15.052-43.327-18.532-59.26-16.942-15.731,1.572-50.698,11.924-52.178,12.364-2.812,0.835-4.888,3.222-5.326,6.123-5.19,34.381-41.108,33.949-42.629,33.914-2.029-0.065-4.033,0.711-5.502,2.14-1.469,1.429-2.294,3.392-2.289,5.441l.069,27.027h-22.526c-6.929-12.294-29.188-53.978-40.831-101.498-18.055-73.688-3.118-125.555 44.395-154.16 46.644-28.081 105.033-31.079 145.806-28.652 25.218,1.503 46.987,5.209 61.241,8.171 0.513,2.124 1.135,4.194 1.889,6.19-1.232,5.608-1.856,11.581-1.856,17.896 0,14.879 6.9,41.771 22.049,65.657 12.756,20.114 35.217,44.09 69.776,44.09 9.825,0 18.668-1.936 26.59-5.163-13.941,40.907-46.368,114.123-70.9,147.468zm53.646-158.245c7.019-1.902 12.919-5.884 16.646-11.073 37.031-10.193 33.024-66.595 32.832-69.027-0.198-2.51-2.217-4.49-4.731-4.638-2.505-0.139-4.751,1.581-5.242,4.05-5.766,28.952-24.405,28.086-25.303,28.034-0.118-0.009-0.231,0.008-0.348,0.007 1.431-10.217 4.117-27.355 8.093-44.51 4.842-20.887 11.433-37.594 15.282-46.4 16.485,8.06 30.131,22.853 30.131,49.753 5.68434e-14,25.689-23.529,86.127-67.36,93.804z"/>
    <path d="m413.071,149.463c-1.453,0-2.885,0.595-3.924,1.624-1.028,1.029-1.623,2.461-1.623,3.924 0,1.462 0.595,2.885 1.623,3.923 1.039,1.029 2.471,1.624 3.924,1.624 1.463,0 2.895-0.595 3.923-1.624 1.039-1.039 1.624-2.461 1.624-3.923 0-1.463-0.585-2.885-1.624-3.924-1.028-1.029-2.46-1.624-3.923-1.624z"/>
    <path d="m318.254,160.559c1.463,0 2.895-0.595 3.923-1.624 1.039-1.029 1.624-2.461 1.624-3.923 0-1.463-0.585-2.885-1.624-3.924-1.028-1.029-2.461-1.624-3.923-1.624-1.453,0-2.885,0.595-3.924,1.624-1.028,1.039-1.623,2.461-1.623,3.924 0,1.462 0.595,2.885 1.623,3.923 1.039,1.028 2.471,1.624 3.924,1.624z"/>
    <path d="m373.278,220.797c-1.059,0-2.108,0.434-2.855,1.18-0.757,0.757-1.18,1.796-1.18,2.855 0,1.059 0.424,2.098 1.18,2.855 0.747,0.747 1.796,1.18 2.855,1.18s2.098-0.433 2.855-1.18c0.747-0.746 1.18-1.795 1.18-2.855 0-1.069-0.433-2.108-1.18-2.855-0.757-0.746-1.796-1.18-2.855-1.18z"/>
    <path d="m358.147,220.797c-1.069,0-2.108,0.434-2.855,1.18-0.757,0.757-1.18,1.796-1.18,2.855 0,1.059 0.424,2.098 1.18,2.855 0.747,0.747 1.786,1.18 2.855,1.18 1.059,0 2.098-0.433 2.855-1.18 0.747-0.757 1.18-1.795 1.18-2.855 0-1.059-0.433-2.098-1.18-2.855-0.757-0.746-1.796-1.18-2.855-1.18z"/>
  </g>
</svg>
